<svg width="1440" height="1024" viewBox="0 0 1440 1024" fill="none" xmlns="http://www.w3.org/2000/svg">
<g clip-path="url(#clip0_1631_11400)">
<path d="M1440 0H0V1024H1440V0Z" fill="#A600FF"/>
<g filter="url(#filter0_f_1631_11400)">
<path d="M529.5 1367.23C830.219 1367.23 1074 1059.04 1074 678.874C1074 298.706 830.219 -9.48151 529.5 -9.48151C228.781 -9.48151 -15 298.706 -15 678.874C-15 1059.04 228.781 1367.23 529.5 1367.23Z" fill="#00BDFF"/>
<path d="M1438.5 1389.99C1739.22 1389.99 1983 1081.8 1983 701.63C1983 321.461 1739.22 13.274 1438.5 13.274C1137.78 13.274 894 321.461 894 701.63C894 1081.8 1137.78 1389.99 1438.5 1389.99Z" fill="#A600FF"/>
<path d="M1429.5 815.407C1730.22 815.407 1974 507.22 1974 127.052C1974 -253.116 1730.22 -561.304 1429.5 -561.304C1128.78 -561.304 885 -253.116 885 127.052C885 507.22 1128.78 815.407 1429.5 815.407Z" fill="#00BDFF"/>
<path d="M127.5 1558.76C428.219 1558.76 672 1250.57 672 870.4C672 490.232 428.219 182.044 127.5 182.044C-173.219 182.044 -417 490.232 -417 870.4C-417 1250.57 -173.219 1558.76 127.5 1558.76Z" fill="#00BDFF"/>
<path d="M1003.5 1289.48C1304.22 1289.48 1548 981.294 1548 601.126C1548 220.958 1304.22 -87.2296 1003.5 -87.2296C702.781 -87.2296 459 220.958 459 601.126C459 981.294 702.781 1289.48 1003.5 1289.48Z" fill="#A600FF"/>
<path d="M534 963.318C834.719 963.318 1078.5 655.131 1078.5 274.963C1078.5 -105.205 834.719 -413.393 534 -413.393C233.281 -413.393 -10.5 -105.205 -10.5 274.963C-10.5 655.131 233.281 963.318 534 963.318Z" fill="#00BDFF"/>
<path d="M1172 201H212V741H1172V201Z" fill="#A600FF"/>
<g filter="url(#filter1_f_1631_11400)">
<path d="M1012 853C1212.48 853 1375 690.479 1375 490C1375 289.521 1212.48 127 1012 127C811.521 127 649 289.521 649 490C649 690.479 811.521 853 1012 853Z" fill="#00BDFF"/>
<path d="M287 884C487.479 884 650 721.479 650 521C650 320.521 487.479 158 287 158C86.5206 158 -76 320.521 -76 521C-76 721.479 86.5206 884 287 884Z" fill="#A600FF"/>
<path d="M679 767C879.479 767 1042 604.479 1042 404C1042 203.521 879.479 41 679 41C478.521 41 316 203.521 316 404C316 604.479 478.521 767 679 767Z" fill="#00BDFF"/>
<path d="M734 1011C934.479 1011 1097 848.479 1097 648C1097 447.521 934.479 285 734 285C533.521 285 371 447.521 371 648C371 848.479 533.521 1011 734 1011Z" fill="#00BDFF"/>
<path d="M692 767C892.479 767 1055 604.479 1055 404C1055 203.521 892.479 41 692 41C491.521 41 329 203.521 329 404C329 604.479 491.521 767 692 767Z" fill="#A600FF"/>
<path d="M1156 968C1356.48 968 1519 805.479 1519 605C1519 404.521 1356.48 242 1156 242C955.521 242 793 404.521 793 605C793 805.479 955.521 968 1156 968Z" fill="#00BDFF"/>
</g>
</g>
</g>
<defs>
<filter id="filter0_f_1631_11400" x="-743" y="-887.304" width="3052" height="2772.06" filterUnits="userSpaceOnUse" color-interpolation-filters="sRGB">
<feFlood flood-opacity="0" result="BackgroundImageFix"/>
<feBlend mode="normal" in="SourceGraphic" in2="BackgroundImageFix" result="shape"/>
<feGaussianBlur stdDeviation="163" result="effect1_foregroundBlur_1631_11400"/>
</filter>
<filter id="filter1_f_1631_11400" x="-402" y="-285" width="2247" height="1622" filterUnits="userSpaceOnUse" color-interpolation-filters="sRGB">
<feFlood flood-opacity="0" result="BackgroundImageFix"/>
<feBlend mode="normal" in="SourceGraphic" in2="BackgroundImageFix" result="shape"/>
<feGaussianBlur stdDeviation="163" result="effect1_foregroundBlur_1631_11400"/>
</filter>
<clipPath id="clip0_1631_11400">
<rect width="1440" height="1024" fill="white"/>
</clipPath>
</defs>
</svg>
