<svg id="visual" viewBox="0 0 1440 1080" width="1440" height="1080" xmlns="http://www.w3.org/2000/svg" xmlns:xlink="http://www.w3.org/1999/xlink" version="1.1"><rect x="0" y="0" width="1440" height="1080" fill="#ffffff"></rect><path d="M0 406L30 433.8C60 461.7 120 517.3 180 525.5C240 533.7 300 494.3 360 491.8C420 489.3 480 523.7 540 540.5C600 557.3 660 556.7 720 559.2C780 561.7 840 567.3 900 556.5C960 545.7 1020 518.3 1080 491.3C1140 464.3 1200 437.7 1260 446.7C1320 455.7 1380 500.3 1410 522.7L1440 545L1440 0L1410 0C1380 0 1320 0 1260 0C1200 0 1140 0 1080 0C1020 0 960 0 900 0C840 0 780 0 720 0C660 0 600 0 540 0C480 0 420 0 360 0C300 0 240 0 180 0C120 0 60 0 30 0L0 0Z" fill="#00c2ff"></path><path d="M0 386L30 391.2C60 396.3 120 406.7 180 431.7C240 456.7 300 496.3 360 486C420 475.7 480 415.3 540 393C600 370.7 660 386.3 720 403.5C780 420.7 840 439.3 900 460C960 480.7 1020 503.3 1080 492.2C1140 481 1200 436 1260 413.3C1320 390.7 1380 390.3 1410 390.2L1440 390L1440 0L1410 0C1380 0 1320 0 1260 0C1200 0 1140 0 1080 0C1020 0 960 0 900 0C840 0 780 0 720 0C660 0 600 0 540 0C480 0 420 0 360 0C300 0 240 0 180 0C120 0 60 0 30 0L0 0Z" fill="#00b3ff"></path><path d="M0 433L30 434C60 435 120 437 180 435.2C240 433.3 300 427.7 360 410.5C420 393.3 480 364.7 540 342.3C600 320 660 304 720 322C780 340 840 392 900 401.3C960 410.7 1020 377.3 1080 372.3C1140 367.3 1200 390.7 1260 407C1320 423.3 1380 432.7 1410 437.3L1440 442L1440 0L1410 0C1380 0 1320 0 1260 0C1200 0 1140 0 1080 0C1020 0 960 0 900 0C840 0 780 0 720 0C660 0 600 0 540 0C480 0 420 0 360 0C300 0 240 0 180 0C120 0 60 0 30 0L0 0Z" fill="#00a3ff"></path><path d="M0 189L30 210.3C60 231.7 120 274.3 180 295C240 315.7 300 314.3 360 307.7C420 301 480 289 540 268.7C600 248.3 660 219.7 720 224.3C780 229 840 267 900 284.7C960 302.3 1020 299.7 1080 306.5C1140 313.3 1200 329.7 1260 332.8C1320 336 1380 326 1410 321L1440 316L1440 0L1410 0C1380 0 1320 0 1260 0C1200 0 1140 0 1080 0C1020 0 960 0 900 0C840 0 780 0 720 0C660 0 600 0 540 0C480 0 420 0 360 0C300 0 240 0 180 0C120 0 60 0 30 0L0 0Z" fill="#0091ff"></path><path d="M0 132L30 138.5C60 145 120 158 180 165.8C240 173.7 300 176.3 360 176.5C420 176.7 480 174.3 540 179.7C600 185 660 198 720 198.3C780 198.7 840 186.3 900 173.8C960 161.3 1020 148.7 1080 148C1140 147.3 1200 158.7 1260 161.7C1320 164.7 1380 159.3 1410 156.7L1440 154L1440 0L1410 0C1380 0 1320 0 1260 0C1200 0 1140 0 1080 0C1020 0 960 0 900 0C840 0 780 0 720 0C660 0 600 0 540 0C480 0 420 0 360 0C300 0 240 0 180 0C120 0 60 0 30 0L0 0Z" fill="#007dff"></path><path d="M0 89L30 86.7C60 84.3 120 79.7 180 79.2C240 78.7 300 82.3 360 94.2C420 106 480 126 540 137.2C600 148.3 660 150.7 720 137.2C780 123.7 840 94.3 900 85.8C960 77.3 1020 89.7 1080 99.5C1140 109.3 1200 116.7 1260 121.3C1320 126 1380 128 1410 129L1440 130L1440 0L1410 0C1380 0 1320 0 1260 0C1200 0 1140 0 1080 0C1020 0 960 0 900 0C840 0 780 0 720 0C660 0 600 0 540 0C480 0 420 0 360 0C300 0 240 0 180 0C120 0 60 0 30 0L0 0Z" fill="#0066ff"></path></svg>