<svg id="visual" viewBox="0 0 900 600" width="900" height="600" xmlns="http://www.w3.org/2000/svg" xmlns:xlink="http://www.w3.org/1999/xlink" version="1.1"><rect x="0" y="0" width="900" height="600" fill="#ffffff"></rect><path d="M0 243L16.7 231.5C33.3 220 66.7 197 100 188.2C133.3 179.3 166.7 184.7 200 190.7C233.3 196.7 266.7 203.3 300 199.3C333.3 195.3 366.7 180.7 400 181.3C433.3 182 466.7 198 500 210.7C533.3 223.3 566.7 232.7 600 232.3C633.3 232 666.7 222 700 210.3C733.3 198.7 766.7 185.3 800 190.8C833.3 196.3 866.7 220.7 883.3 232.8L900 245L900 0L883.3 0C866.7 0 833.3 0 800 0C766.7 0 733.3 0 700 0C666.7 0 633.3 0 600 0C566.7 0 533.3 0 500 0C466.7 0 433.3 0 400 0C366.7 0 333.3 0 300 0C266.7 0 233.3 0 200 0C166.7 0 133.3 0 100 0C66.7 0 33.3 0 16.7 0L0 0Z" fill="#00c2ff"></path><path d="M0 155L16.7 151.3C33.3 147.7 66.7 140.3 100 146.5C133.3 152.7 166.7 172.3 200 177.3C233.3 182.3 266.7 172.7 300 166C333.3 159.3 366.7 155.7 400 151.7C433.3 147.7 466.7 143.3 500 145.5C533.3 147.7 566.7 156.3 600 166.5C633.3 176.7 666.7 188.3 700 191.8C733.3 195.3 766.7 190.7 800 178.2C833.3 165.7 866.7 145.3 883.3 135.2L900 125L900 0L883.3 0C866.7 0 833.3 0 800 0C766.7 0 733.3 0 700 0C666.7 0 633.3 0 600 0C566.7 0 533.3 0 500 0C466.7 0 433.3 0 400 0C366.7 0 333.3 0 300 0C266.7 0 233.3 0 200 0C166.7 0 133.3 0 100 0C66.7 0 33.3 0 16.7 0L0 0Z" fill="#00afff"></path><path d="M0 153L16.7 145.5C33.3 138 66.7 123 100 120C133.3 117 166.7 126 200 123.5C233.3 121 266.7 107 300 111.2C333.3 115.3 366.7 137.7 400 146.2C433.3 154.7 466.7 149.3 500 143.8C533.3 138.3 566.7 132.7 600 126.8C633.3 121 666.7 115 700 114.7C733.3 114.3 766.7 119.7 800 117.7C833.3 115.7 866.7 106.3 883.3 101.7L900 97L900 0L883.3 0C866.7 0 833.3 0 800 0C766.7 0 733.3 0 700 0C666.7 0 633.3 0 600 0C566.7 0 533.3 0 500 0C466.7 0 433.3 0 400 0C366.7 0 333.3 0 300 0C266.7 0 233.3 0 200 0C166.7 0 133.3 0 100 0C66.7 0 33.3 0 16.7 0L0 0Z" fill="#009aff"></path><path d="M0 109L16.7 100.3C33.3 91.7 66.7 74.3 100 65.5C133.3 56.7 166.7 56.3 200 60.8C233.3 65.3 266.7 74.7 300 80.5C333.3 86.3 366.7 88.7 400 87.7C433.3 86.7 466.7 82.3 500 85.8C533.3 89.3 566.7 100.7 600 107C633.3 113.3 666.7 114.7 700 109.2C733.3 103.7 766.7 91.3 800 90.3C833.3 89.3 866.7 99.7 883.3 104.8L900 110L900 0L883.3 0C866.7 0 833.3 0 800 0C766.7 0 733.3 0 700 0C666.7 0 633.3 0 600 0C566.7 0 533.3 0 500 0C466.7 0 433.3 0 400 0C366.7 0 333.3 0 300 0C266.7 0 233.3 0 200 0C166.7 0 133.3 0 100 0C66.7 0 33.3 0 16.7 0L0 0Z" fill="#0082ff"></path><path d="M0 30L16.7 35.5C33.3 41 66.7 52 100 57C133.3 62 166.7 61 200 60.2C233.3 59.3 266.7 58.7 300 60C333.3 61.3 366.7 64.7 400 63.3C433.3 62 466.7 56 500 56.8C533.3 57.7 566.7 65.3 600 61.2C633.3 57 666.7 41 700 36.7C733.3 32.3 766.7 39.7 800 41C833.3 42.3 866.7 37.7 883.3 35.3L900 33L900 0L883.3 0C866.7 0 833.3 0 800 0C766.7 0 733.3 0 700 0C666.7 0 633.3 0 600 0C566.7 0 533.3 0 500 0C466.7 0 433.3 0 400 0C366.7 0 333.3 0 300 0C266.7 0 233.3 0 200 0C166.7 0 133.3 0 100 0C66.7 0 33.3 0 16.7 0L0 0Z" fill="#0066ff"></path></svg>