<svg width="40" height="40" viewBox="0 0 40 40" fill="none" xmlns="http://www.w3.org/2000/svg">
<rect width="40" height="40" rx="20" fill="#00C2FF" fill-opacity="0.4"/>
<path d="M21.25 22H14.75C14.1977 22 13.75 21.5523 13.75 21V16.5C13.75 15.9477 14.1977 15.5 14.75 15.5H20.25C20.8023 15.5 21.25 15.9477 21.25 16.5V17M21.25 22V17M21.25 22H23.75H25.25C25.8023 22 26.25 21.5523 26.25 21V19.4142C26.25 19.149 26.1446 18.8946 25.9571 18.7071L24.5429 17.2929C24.3554 17.1054 24.101 17 23.8358 17H21.25" stroke="#00C2FF" stroke-width="2"/>
<path d="M16.5 22H16C15.4477 22 15 22.4477 15 23V23.5C15 24.0523 15.4477 24.5 16 24.5H16.5C17.0523 24.5 17.5 24.0523 17.5 23.5V23C17.5 22.4477 17.0523 22 16.5 22Z" stroke="#00C2FF"/>
<path d="M24 22H23.5C22.9477 22 22.5 22.4477 22.5 23V23.5C22.5 24.0523 22.9477 24.5 23.5 24.5H24C24.5523 24.5 25 24.0523 25 23.5V23C25 22.4477 24.5523 22 24 22Z" stroke="#00C2FF"/>
</svg>
