<svg width="44" height="41" viewBox="0 0 44 41" fill="none" xmlns="http://www.w3.org/2000/svg">
<path d="M0.81955 5.5C0.81955 2.73858 3.05813 0.5 5.81955 0.5H22.7889H40.7014C42.4925 0.5 43.9445 1.952 43.9445 3.74314C43.9445 5.63401 42.3335 7.12392 40.4484 6.97639L4.18426 4.13833C2.37004 3.99634 0.81955 5.43023 0.81955 7.25V5.5Z" fill="#00C2FF"/>
<path d="M17.9509 7.25L27.1183 8.44628C29.9497 8.81576 31.8972 11.4773 31.3927 14.2878L27.4385 36.3135C27.0294 38.5918 25.0471 40.25 22.7323 40.25C20.0916 40.25 17.9509 38.1093 17.9509 35.4686V16.0422C17.9509 13.5732 16.1487 11.4739 13.7082 11.0999L2.57109 9.39338C1.56356 9.239 0.81955 8.37231 0.81955 7.35302C0.81955 6.10625 1.91638 5.14406 3.15253 5.30641L17.9509 7.25Z" fill="#00C2FF"/>
</svg>
