<svg width="35" height="36" viewBox="0 0 35 36" fill="none" xmlns="http://www.w3.org/2000/svg">
<path d="M22.75 14.7661C25.8911 14.7661 28.4375 12.2197 28.4375 9.07861C28.4375 5.93749 25.8911 3.39111 22.75 3.39111M23.1875 20.8911H23.4062C28.1179 20.8911 31.9375 24.7107 31.9375 29.4224C31.9375 30.9929 30.6643 32.2661 29.0938 32.2661H26.25M17.9375 9.07861C17.9375 12.2197 15.3911 14.7661 12.25 14.7661C9.10888 14.7661 6.5625 12.2197 6.5625 9.07861C6.5625 5.93749 9.10888 3.39111 12.25 3.39111C15.3911 3.39111 17.9375 5.93749 17.9375 9.07861ZM5.90625 32.2661H18.5938C20.1643 32.2661 21.4375 30.9929 21.4375 29.4224C21.4375 24.7107 17.6179 20.8911 12.9062 20.8911H11.5938C6.88207 20.8911 3.0625 24.7107 3.0625 29.4224C3.0625 30.9929 4.33569 32.2661 5.90625 32.2661Z" stroke="#00C2FF" stroke-width="2" stroke-linecap="round" stroke-linejoin="round"/>
</svg>
