<svg width="219" height="45" viewBox="0 0 219 45" fill="none" xmlns="http://www.w3.org/2000/svg">
<path d="M0 7.625C0 4.86358 2.23858 2.625 5 2.625H21.9693H39.8819C41.673 2.625 43.125 4.077 43.125 5.86814C43.125 7.75901 41.5139 9.24892 39.6288 9.10139L3.36471 6.26333C1.55049 6.12134 0 7.55523 0 9.375V7.625Z" fill="#00C2FF"/>
<path d="M17.1313 9.375L26.2988 10.5713C29.1302 10.9408 31.0777 13.6023 30.5731 16.4128L26.6189 38.4385C26.2099 40.7168 24.2275 42.375 21.9127 42.375C19.2721 42.375 17.1313 40.2343 17.1313 37.5936V18.1672C17.1313 15.6982 15.3292 13.5989 12.8886 13.2249L1.75154 11.5184C0.744006 11.364 0 10.4973 0 9.47802C0 8.23125 1.09683 7.26906 2.33298 7.43141L17.1313 9.375Z" fill="#00C2FF"/>
<path d="M60.735 11.85V16.53H55.095V33H49.215V16.53H43.635V11.85H60.735ZM85.1405 11.85L77.7005 26.28V33H71.7905V26.28L64.3505 11.85H71.0705L74.7905 20.01L78.5105 11.85H85.1405ZM106.656 18.9C106.656 20.18 106.356 21.35 105.756 22.41C105.176 23.45 104.286 24.29 103.086 24.93C101.906 25.55 100.456 25.86 98.7356 25.86H95.8256V33H89.9456V11.85H98.7356C100.436 11.85 101.876 12.15 103.056 12.75C104.256 13.35 105.156 14.18 105.756 15.24C106.356 16.3 106.656 17.52 106.656 18.9ZM98.1656 21.18C99.8256 21.18 100.656 20.42 100.656 18.9C100.656 17.36 99.8256 16.59 98.1656 16.59H95.8256V21.18H98.1656ZM117.898 11.85V33H112.018V11.85H117.898ZM132.226 33.21C129.766 33.21 127.746 32.63 126.166 31.47C124.586 30.29 123.736 28.61 123.616 26.43H129.886C129.946 27.17 130.166 27.71 130.546 28.05C130.926 28.39 131.416 28.56 132.016 28.56C132.556 28.56 132.996 28.43 133.336 28.17C133.696 27.89 133.876 27.51 133.876 27.03C133.876 26.41 133.586 25.93 133.006 25.59C132.426 25.25 131.486 24.87 130.186 24.45C128.806 23.99 127.686 23.55 126.826 23.13C125.986 22.69 125.246 22.06 124.606 21.24C123.986 20.4 123.676 19.31 123.676 17.97C123.676 16.61 124.016 15.45 124.696 14.49C125.376 13.51 126.316 12.77 127.516 12.27C128.716 11.77 130.076 11.52 131.596 11.52C134.056 11.52 136.016 12.1 137.476 13.26C138.956 14.4 139.746 16.01 139.846 18.09H133.456C133.436 17.45 133.236 16.97 132.856 16.65C132.496 16.33 132.026 16.17 131.446 16.17C131.006 16.17 130.646 16.3 130.366 16.56C130.086 16.82 129.946 17.19 129.946 17.67C129.946 18.07 130.096 18.42 130.396 18.72C130.716 19 131.106 19.25 131.566 19.47C132.026 19.67 132.706 19.93 133.606 20.25C134.946 20.71 136.046 21.17 136.906 21.63C137.786 22.07 138.536 22.7 139.156 23.52C139.796 24.32 140.116 25.34 140.116 26.58C140.116 27.84 139.796 28.97 139.156 29.97C138.536 30.97 137.626 31.76 136.426 32.34C135.246 32.92 133.846 33.21 132.226 33.21ZM161.78 11.85V16.53H156.14V33H150.26V16.53H144.68V11.85H161.78ZM172.835 11.85V33H166.955V11.85H172.835ZM192.564 29.55H185.064L183.924 33H177.744L185.454 11.85H192.234L199.914 33H193.704L192.564 29.55ZM191.094 25.05L188.814 18.21L186.564 25.05H191.094ZM210.71 28.5H217.28V33H204.83V11.85H210.71V28.5Z" fill="#0D0C22"/>
</svg>
