<svg width="45" height="46" viewBox="0 0 45 46" fill="none" xmlns="http://www.w3.org/2000/svg">
<path d="M30.9375 17.9534L14.0625 8.22217" stroke="#00C2FF" stroke-width="2" stroke-linecap="round" stroke-linejoin="round"/>
<path d="M39.375 30.3287V15.3287C39.3743 14.6711 39.2007 14.0252 38.8716 13.4559C38.5425 12.8865 38.0695 12.4137 37.5 12.0849L24.375 4.58492C23.8049 4.25579 23.1583 4.08252 22.5 4.08252C21.8417 4.08252 21.1951 4.25579 20.625 4.58492L7.5 12.0849C6.93049 12.4137 6.45746 12.8865 6.12837 13.4559C5.79927 14.0252 5.62567 14.6711 5.625 15.3287V30.3287C5.62567 30.9863 5.79927 31.6322 6.12837 32.2015C6.45746 32.7708 6.93049 33.2436 7.5 33.5724L20.625 41.0724C21.1951 41.4016 21.8417 41.5748 22.5 41.5748C23.1583 41.5748 23.8049 41.4016 24.375 41.0724L37.5 33.5724C38.0695 33.2436 38.5425 32.7708 38.8716 32.2015C39.2007 31.6322 39.3743 30.9863 39.375 30.3287Z" stroke="#00C2FF" stroke-width="2" stroke-linecap="round" stroke-linejoin="round"/>
<path d="M6.13086 13.3784L22.4996 22.8472L38.8684 13.3784" stroke="#00C2FF" stroke-width="2" stroke-linecap="round" stroke-linejoin="round"/>
<path d="M22.5 41.7286V22.8286" stroke="#00C2FF" stroke-width="2" stroke-linecap="round" stroke-linejoin="round"/>
</svg>
